<?xml version="1.0" standalone="no"?>
<!DOCTYPE svg PUBLIC "-//W3C//DTD SVG 20010904//EN"
 "http://www.w3.org/TR/2001/REC-SVG-20010904/DTD/svg10.dtd">
<svg version="1.0" xmlns="http://www.w3.org/2000/svg"
 width="220.000000pt" height="109.000000pt" viewBox="0 0 340.000000 219.000000"
 preserveAspectRatio="xMidYMid meet">

<g transform="translate(0.000000,219.000000) scale(0.100000,-0.100000)"
fill="#8B5F4A" stroke="none">
<path d="M17 1728 c-4 -248 -7 -733 -7 -1078 l0 -627 968 -6 c532 -4 1291 -7
1688 -7 l721 0 5 1077 c3 593 5 1079 4 1079 0 1 -760 4 -1687 8 l-1686 6 -6
-452z m1131 181 c-2 -6 -26 -18 -54 -28 -124 -42 -274 -190 -381 -376 -78
-135 -140 -304 -126 -341 8 -21 37 -17 138 15 237 75 324 77 383 5 l29 -35
104 87 c57 48 122 107 145 131 28 29 49 43 66 43 27 0 31 3 86 64 18 20 37 36
43 36 22 0 21 -35 -4 -79 -32 -58 -65 -140 -83 -209 -16 -60 -19 -152 -5 -152
19 0 76 57 147 146 l73 92 26 127 c35 175 86 304 167 422 36 53 46 59 66 40
14 -14 14 -22 -1 -81 -20 -83 -77 -223 -157 -391 -61 -127 -63 -132 -67 -230
-6 -119 10 -296 33 -357 20 -54 22 -80 7 -85 -37 -13 -73 160 -73 351 l-1 141
-37 -45 c-20 -25 -62 -71 -93 -103 -47 -48 -62 -58 -86 -55 -44 5 -58 45 -43
122 10 53 39 160 57 206 3 8 -21 -20 -53 -62 -33 -43 -65 -80 -71 -82 -19 -8
-43 4 -43 20 0 21 -9 18 -59 -23 -100 -81 -141 -126 -141 -153 0 -50 -40 -184
-80 -267 -63 -129 -178 -233 -258 -233 -42 0 -56 21 -48 73 15 98 108 240 258
390 49 50 88 97 88 108 0 10 -10 29 -21 40 -19 19 -29 21 -108 16 -59 -3 -114
-14 -176 -35 -142 -48 -162 -52 -196 -40 -73 25 -64 118 31 310 114 230 277
413 418 469 53 20 106 25 100 8z m972 -20 c9 -16 7 -36 -10 -92 -29 -94 -110
-288 -168 -401 l-47 -91 0 -185 c0 -189 11 -266 43 -322 13 -22 14 -30 4 -40
-44 -44 -92 172 -92 413 0 120 34 316 77 439 45 131 143 300 173 300 5 0 14
-9 20 -21z m250 -34 c0 -20 -22 -65 -32 -65 -11 0 -10 23 2 54 10 28 30 35 30
11z m310 -360 c0 -8 -5 -15 -11 -15 -28 0 -179 -168 -179 -199 0 -11 18 -16
93 -26 36 -5 56 -15 82 -41 l35 -35 82 71 c76 64 118 86 118 60 0 -6 -10 -19
-22 -29 -164 -138 -158 -131 -174 -190 -28 -94 -134 -181 -134 -109 0 26 14
52 61 114 22 28 39 58 39 67 0 27 -48 55 -108 63 -75 9 -99 19 -107 43 -7 24
4 49 58 120 68 88 167 151 167 106z m-530 -110 c12 -30 5 -52 -28 -87 -29 -31
-50 -36 -58 -13 -10 26 -21 16 -33 -29 -16 -63 -14 -83 9 -106 16 -16 24 -17
48 -9 44 15 96 63 138 126 20 32 39 60 41 62 2 3 8 0 15 -7 8 -8 4 -23 -16
-57 -55 -93 -138 -165 -191 -165 -42 0 -85 58 -85 114 0 44 31 127 61 161 39
44 84 49 99 10z m-1124 -820 c4 -8 1 -22 -6 -30 -8 -9 -8 -15 -2 -15 17 0 25
-39 12 -55 -7 -8 -29 -15 -49 -15 l-36 0 0 65 0 65 38 0 c24 0 40 -5 43 -15z
m287 -50 c34 -64 34 -65 12 -65 -16 0 -25 8 -29 26 -9 34 -51 31 -50 -3 0 -18
-5 -23 -25 -23 -15 0 -21 3 -14 8 6 4 22 33 36 65 14 31 28 57 31 57 2 0 20
-29 39 -65z m239 38 c-5 -25 -4 -27 11 -14 10 7 17 20 17 27 0 9 11 14 27 14
l27 0 -33 -27 -32 -28 34 -37 c31 -34 33 -38 14 -38 -12 0 -32 12 -45 28 l-23
27 4 -27 c3 -23 1 -28 -17 -28 -19 0 -21 6 -21 65 0 59 2 65 21 65 18 0 20 -5
16 -27z m337 5 c0 -13 -3 -17 -6 -10 -8 21 -43 14 -43 -9 0 -16 5 -20 20 -16
12 3 20 0 20 -8 0 -8 -8 -11 -20 -8 -16 4 -20 0 -20 -21 0 -27 18 -34 38 -14
13 13 27 5 17 -11 -3 -6 -25 -11 -48 -11 l-42 0 0 65 0 65 43 0 c37 0 42 -3
41 -22z m260 13 c10 -6 12 -19 8 -41 -5 -25 -2 -36 18 -56 l24 -24 -23 0 c-16
0 -31 11 -46 33 l-21 32 4 -32 c3 -28 0 -33 -17 -33 -19 0 -21 6 -21 65 l0 65
30 0 c17 0 36 -4 44 -9z m251 -3 c0 -7 7 -22 15 -32 14 -19 15 -18 21 12 5 22
12 32 25 32 25 0 24 -6 -7 -43 -18 -21 -24 -39 -22 -61 2 -23 -1 -32 -14 -34
-15 -3 -18 4 -18 35 0 22 -9 48 -20 63 -25 32 -25 40 0 40 11 0 20 -6 20 -12z"/>
<path d="M1903 1798 c-43 -71 -77 -149 -101 -233 -39 -133 -36 -145 11 -50 59
120 140 335 125 335 -2 0 -18 -24 -35 -52z"/>
<path d="M1412 1344 c-32 -38 -51 -84 -28 -65 22 19 77 101 67 101 -5 0 -23
-16 -39 -36z"/>
<path d="M1004 968 c-127 -131 -196 -239 -210 -327 -8 -52 4 -53 74 -6 65 45
126 120 168 210 32 70 68 188 62 207 -2 5 -44 -32 -94 -84z"/>
<path d="M2050 1801 c-41 -65 -83 -166 -109 -263 -26 -97 -26 -114 1 -63 50
94 154 362 144 372 -2 2 -18 -19 -36 -46z"/>
<path d="M2080 1355 c-7 -8 -9 -22 -6 -31 5 -13 9 -14 22 -3 8 7 20 21 25 31
8 14 6 18 -9 18 -11 0 -25 -7 -32 -15z"/>
<path d="M980 551 c0 -12 5 -21 10 -21 6 0 10 6 10 14 0 8 -4 18 -10 21 -5 3
-10 -3 -10 -14z"/>
<path d="M980 486 c0 -17 5 -26 16 -26 10 0 14 7 12 22 -5 32 -28 35 -28 4z"/>
<path d="M1260 525 c0 -8 4 -15 10 -15 5 0 7 7 4 15 -4 8 -8 15 -10 15 -2 0
-4 -7 -4 -15z"/>
<path d="M2110 540 c0 -11 4 -20 9 -20 11 0 22 26 14 34 -12 12 -23 5 -23 -14z"/>
</g>
</svg>
