<?xml version="1.0" standalone="no"?>
<!DOCTYPE svg PUBLIC "-//W3C//DTD SVG 20010904//EN"
 "http://www.w3.org/TR/2001/REC-SVG-20010904/DTD/svg10.dtd">
<svg version="1.0" xmlns="http://www.w3.org/2000/svg"
 width="330" height="219" viewBox="0 0 340.000000 219.000000"
 preserveAspectRatio="xMidYMid meet">
<metadata>
Created by potrace 1.16, written by Peter Selinger 2001-2019
</metadata>
<g transform="translate(0.000000,219.000000) scale(0.031481,-0.024774)"
fill="#000000" stroke="none">
<path d="M2805 7800 c-336 -50 -807 -347 -1148 -724 -269 -298 -472 -573 -693
-941 -314 -522 -584 -1181 -601 -1465 -8 -131 11 -194 78 -265 64 -68 129 -97
230 -103 111 -6 174 10 684 178 248 82 477 155 510 164 178 45 537 66 656 38
122 -28 214 -113 257 -235 26 -72 28 -117 8 -155 -8 -15 -52 -61 -98 -102
-438 -394 -866 -886 -1107 -1272 -222 -356 -362 -746 -321 -898 23 -86 109
-140 222 -140 61 0 110 16 213 67 304 153 552 389 760 723 79 128 212 405 274
572 96 256 177 601 191 808 9 138 21 177 70 234 64 73 502 448 730 625 l105
81 6 -68 c10 -110 39 -142 123 -142 48 0 52 2 111 62 76 79 356 448 503 663
58 86 87 110 111 95 11 -6 8 -15 -12 -42 -68 -88 -170 -357 -257 -673 -92
-338 -117 -540 -89 -730 27 -177 141 -241 293 -163 110 57 452 422 683 730 63
84 119 161 124 171 6 10 14 15 20 12 5 -4 9 -154 9 -378 0 -543 15 -768 76
-1132 62 -371 125 -577 199 -651 34 -34 98 -34 121 1 23 35 10 81 -40 136
-104 116 -173 450 -228 1094 -7 88 -12 301 -12 515 0 333 2 375 22 484 30 160
44 196 167 451 447 919 710 1567 821 2019 41 168 41 210 -1 276 -23 36 -29 40
-66 40 -36 0 -47 -6 -83 -43 -133 -138 -397 -594 -539 -932 -179 -427 -318
-970 -382 -1499 l-16 -129 -103 -126 c-56 -69 -151 -190 -210 -269 -236 -315
-454 -553 -610 -669 -67 -50 -96 -53 -133 -17 l-26 26 6 166 c13 416 157 887
429 1397 85 160 102 199 105 245 4 46 1 59 -17 78 -55 59 -116 14 -304 -224
-75 -95 -143 -175 -153 -180 -10 -4 -61 -8 -113 -8 -84 -1 -101 -4 -148 -29
-89 -47 -188 -158 -286 -319 -9 -15 -36 -38 -60 -50 -47 -24 -222 -166 -584
-473 -257 -218 -358 -296 -375 -289 -7 3 -34 41 -60 85 -97 160 -156 215 -272
258 -85 32 -263 45 -429 31 -301 -24 -498 -75 -1236 -320 -163 -55 -240 -67
-325 -51 -75 14 -92 30 -100 96 -38 297 338 1189 775 1839 329 491 701 880
1075 1124 201 132 374 207 540 236 95 17 115 37 73 76 -23 21 -53 23 -143 10z
m3689 -228 c11 -34 -119 -449 -239 -762 -154 -400 -529 -1225 -557 -1225 -33
0 -15 124 67 460 143 582 372 1109 638 1465 61 82 81 95 91 62z m-2127 -2107
c3 -10 -21 -56 -62 -118 -80 -119 -303 -404 -324 -412 -8 -3 -21 0 -28 7 -19
20 7 110 64 222 55 106 172 233 263 285 62 35 78 38 87 16z m-1569 -1433 c4
-39 -34 -212 -89 -411 -206 -733 -515 -1197 -1015 -1525 -102 -66 -213 -116
-259 -116 -46 0 -58 25 -53 115 13 206 243 697 469 1002 201 270 486 586 753
835 161 150 188 164 194 100z"/>
<path d="M7100 7743 c-33 -23 -33 -23 -164 -218 -136 -202 -217 -343 -304
-524 -242 -507 -422 -1165 -487 -1786 -4 -37 -20 -88 -41 -131 l-33 -72 14
-68 c11 -54 15 -156 15 -454 0 -531 14 -737 76 -1105 49 -294 90 -447 150
-567 18 -36 44 -74 56 -82 28 -20 92 -21 108 -1 19 23 15 84 -9 114 -65 80
-81 108 -109 193 -43 131 -78 311 -107 555 -44 376 -50 483 -50 883 1 352 3
395 23 500 28 148 42 188 147 405 455 943 718 1583 831 2025 44 170 47 237 16
296 -30 58 -81 72 -132 37z m39 -167 c29 -35 -182 -657 -387 -1136 -62 -145
-128 -291 -338 -740 -30 -63 -60 -115 -67 -115 -48 0 65 523 203 935 81 241
213 532 334 735 81 135 221 335 235 335 5 0 14 -6 20 -14z"/>
<path d="M8209 7553 c-26 -7 -44 -86 -30 -132 6 -21 11 -86 11 -145 0 -88 3
-108 16 -113 8 -3 22 1 30 9 21 21 44 157 44 262 0 77 -3 96 -18 109 -19 17
-24 18 -53 10z"/>
<path d="M9484 6000 c-106 -53 -214 -141 -370 -302 -343 -357 -484 -617 -398
-743 62 -92 121 -117 294 -127 160 -8 282 -29 394 -65 72 -24 88 -34 148 -93
52 -52 69 -77 81 -118 25 -82 16 -102 -119 -268 -180 -222 -334 -478 -334
-555 0 -33 7 -48 34 -75 28 -28 41 -34 78 -34 52 0 86 22 191 120 155 145 245
315 277 525 6 38 20 90 31 115 35 80 299 329 599 565 201 159 210 168 210 200
0 69 -39 82 -111 37 -104 -67 -472 -377 -651 -550 -102 -98 -102 -98 -172 7
-87 130 -209 217 -361 256 -33 8 -150 25 -260 36 -222 23 -245 31 -245 82 0
50 90 219 182 342 152 205 467 498 616 575 34 18 42 27 42 50 0 30 -30 60 -61
60 -9 0 -52 -18 -95 -40z m89 -1922 c-16 -23 -44 -68 -61 -99 -37 -65 -108
-143 -122 -134 -6 3 -10 15 -10 26 0 24 165 251 188 260 32 13 34 -9 5 -53z"/>
<path d="M7112 5555 c-63 -29 -149 -108 -197 -180 -122 -184 -205 -454 -205
-664 1 -152 36 -243 132 -347 113 -120 206 -143 353 -85 119 45 226 121 351
245 121 122 218 250 345 456 66 107 82 143 82 172 -1 62 -41 89 -75 51 -9 -10
-50 -76 -93 -148 -182 -305 -401 -534 -613 -640 -172 -86 -278 -67 -349 60
-23 43 -28 64 -31 146 -7 163 47 415 110 517 l21 34 19 -23 c10 -13 28 -44 40
-68 45 -86 91 -100 170 -50 103 67 210 223 224 329 11 84 -29 171 -97 205 -44
23 -126 19 -187 -10z m191 -106 c15 -24 -19 -120 -64 -183 -21 -29 -63 -72
-93 -96 l-56 -43 -50 54 c-40 43 -48 58 -44 79 10 39 42 81 99 127 92 75 183
102 208 62z"/>
<path d="M1680 1666 c0 -10 13 -16 38 -18 l37 -3 3 -337 2 -338 -40 0 c-33 0
-40 -3 -40 -20 0 -20 7 -20 278 -20 l278 0 42 43 42 43 0 114 0 114 -37 38
-37 38 37 38 37 38 0 99 0 99 -42 43 -42 43 -278 0 c-235 0 -278 -2 -278 -14z
m425 -176 l0 -155 -65 0 -65 0 -3 145 c-1 79 0 150 3 158 3 9 22 12 67 10 l63
-3 0 -155z m5 -355 l0 -165 -70 0 -70 0 0 165 0 165 70 0 70 0 0 -165z"/>
<path d="M3407 1673 c-4 -7 -205 -623 -222 -680 -5 -18 -14 -23 -41 -23 -27 0
-34 -4 -34 -20 0 -19 7 -20 106 -20 95 0 105 2 102 18 -2 13 -15 18 -49 20
l-46 3 37 117 38 117 132 0 133 0 34 -100 c18 -54 35 -107 39 -117 5 -16 -1
-18 -45 -18 -44 0 -51 -3 -51 -20 0 -19 7 -20 195 -20 188 0 195 1 195 20 0
16 -7 20 -33 20 l-33 0 -115 353 -115 352 -111 3 c-61 1 -113 -1 -116 -5z m80
-230 c29 -87 55 -166 58 -175 7 -17 -3 -18 -113 -18 l-120 0 57 175 c31 96 58
175 61 175 4 0 29 -71 57 -157z"/>
<path d="M4690 1666 c0 -10 13 -16 38 -18 l37 -3 3 -337 2 -337 -37 -3 c-27
-2 -39 -8 -41 -20 -3 -17 11 -18 177 -18 174 0 181 1 181 20 0 16 -7 20 -35
20 l-35 0 2 338 3 337 33 3 c20 2 32 9 32 18 0 12 -30 14 -180 14 -150 0 -180
-2 -180 -14z"/>
<path d="M5190 1665 c0 -10 10 -15 34 -15 19 0 37 -4 40 -8 3 -5 -51 -78 -119
-163 -69 -84 -125 -163 -125 -174 0 -11 39 -100 87 -197 l87 -178 148 0 c141
0 148 1 148 20 0 16 -7 20 -33 20 -34 0 -34 0 -118 175 l-84 174 -89 1 c-71 0
-87 3 -83 14 3 7 61 82 128 165 l123 151 43 0 c32 0 43 4 43 15 0 12 -19 15
-115 15 -96 0 -115 -3 -115 -15z"/>
<path d="M6230 1666 c0 -10 13 -16 38 -18 l37 -3 3 -337 2 -337 -37 -3 c-27
-2 -39 -8 -41 -20 -3 -17 17 -18 303 -18 l306 0 -3 107 c-3 93 -5 108 -20 111
-16 3 -18 -6 -18 -87 l0 -91 -140 0 -140 0 2 163 3 162 123 3 c98 2 122 5 122
17 0 12 -24 15 -122 17 l-123 3 0 155 0 155 135 0 135 0 3 -87 c3 -80 5 -88
22 -88 19 0 20 7 20 105 l0 105 -305 0 c-259 0 -305 -2 -305 -14z"/>
<path d="M7680 1665 c0 -10 11 -15 35 -15 l35 0 0 -340 0 -340 -35 0 c-28 0
-35 -4 -35 -20 0 -19 7 -20 180 -20 173 0 180 1 180 20 0 16 -7 20 -35 20
l-35 0 0 160 0 160 75 0 75 0 0 -137 0 -137 42 -43 42 -43 103 0 c96 0 103 1
103 20 0 16 -7 20 -35 20 l-35 0 0 128 0 128 -40 39 -40 39 40 41 40 41 0 104
0 104 -42 43 -42 43 -288 0 c-249 0 -288 -2 -288 -15z m440 -180 l0 -165 -75
0 -75 0 0 165 0 165 75 0 75 0 0 -165z"/>
<path d="M9140 1666 c0 -9 12 -16 33 -18 31 -3 35 -9 130 -197 l97 -194 0
-143 0 -144 -35 0 c-28 0 -35 -4 -35 -20 0 -19 7 -20 180 -20 173 0 180 1 180
20 0 16 -7 20 -35 20 l-35 0 0 165 0 165 87 175 c87 173 88 175 120 175 23 0
33 5 33 15 0 12 -18 15 -100 15 -82 0 -100 -3 -100 -15 0 -10 10 -15 34 -15
19 0 37 -4 41 -10 3 -5 -28 -76 -69 -157 l-74 -148 -71 149 c-39 81 -71 152
-71 157 0 5 11 9 25 9 16 0 25 6 25 15 0 13 -27 15 -180 15 -150 0 -180 -2
-180 -14z"/>
</g>
</svg>
